<?xml version="1.0" standalone="no"?>
<!DOCTYPE svg PUBLIC "-//W3C//DTD SVG 20010904//EN"
 "http://www.w3.org/TR/2001/REC-SVG-20010904/DTD/svg10.dtd">
<svg version="1.0" xmlns="http://www.w3.org/2000/svg"
 width="512.000000pt" height="512.000000pt" viewBox="0 0 512.000000 512.000000"
 preserveAspectRatio="xMidYMid meet">
<metadata>
Created by potrace 1.14, written by Peter Selinger 2001-2017
</metadata>
<g transform="translate(0.000000,512.000000) scale(0.100000,-0.100000)"
fill="#000000" stroke="none">
<path d="M4378 4975 c-2 -2 -26 -6 -53 -8 -28 -3 -63 -10 -78 -16 -15 -6 -27
-8 -27 -6 0 3 -17 -3 -39 -14 -21 -11 -41 -18 -43 -15 -7 6 -202 -95 -206
-107 -2 -5 -10 -9 -18 -9 -8 0 -14 -4 -14 -9 0 -5 -9 -13 -20 -16 -24 -8 -274
-254 -266 -262 3 -3 0 -11 -7 -18 -36 -38 -97 -129 -97 -145 0 -5 -5 -10 -11
-10 -5 0 -8 -4 -5 -9 4 -5 3 -11 -1 -13 -8 -3 -86 -155 -89 -173 -1 -5 -13
-39 -27 -75 -38 -96 -78 -231 -71 -241 3 -5 1 -9 -3 -9 -5 0 -10 -16 -11 -36
-2 -20 -7 -44 -11 -53 -5 -9 -7 -24 -6 -33 2 -10 0 -20 -4 -22 -3 -2 -6 -25
-6 -50 0 -25 -2 -46 -5 -46 -3 0 -6 -21 -5 -46 0 -25 -3 -48 -8 -51 -4 -2 -5
-8 -2 -13 3 -5 7 -57 10 -117 4 -91 14 -162 29 -208 1 -5 7 -23 11 -40 11 -39
67 -155 96 -197 20 -29 112 -123 153 -155 8 -7 22 -13 31 -13 8 0 15 -4 15 -9
0 -7 35 -25 73 -36 4 -1 9 -4 12 -5 3 -1 8 -3 13 -5 4 -1 14 -4 22 -7 69 -27
311 -33 371 -9 15 5 30 7 33 4 3 -4 6 -2 6 3 0 5 14 10 32 11 17 1 35 8 40 15
4 7 8 10 8 5 0 -4 17 0 38 9 20 8 42 16 47 17 6 1 12 4 15 7 3 3 27 16 55 30
112 56 311 226 380 324 11 16 32 42 47 59 15 17 25 34 22 38 -2 4 1 11 8 16 7
4 19 19 26 32 8 13 23 40 34 60 26 46 60 112 88 176 26 57 101 275 95 275 -3
0 0 11 5 26 6 14 12 37 15 52 7 37 14 72 20 102 32 148 21 548 -16 571 -6 3
-10 9 -9 13 7 27 -48 153 -86 197 -8 8 -14 19 -14 22 0 8 -121 132 -129 133
-13 1 -71 39 -71 46 0 4 -7 5 -15 2 -8 -4 -15 -2 -15 4 0 8 -85 38 -100 35 -3
-1 -13 3 -23 9 -16 8 -231 20 -239 13z m106 -385 c37 -14 95 -69 116 -109 18
-36 34 -87 45 -146 8 -46 5 -290 -5 -290 -1 0 -3 -16 -5 -35 -8 -85 -18 -140
-27 -140 -5 0 -7 -4 -4 -8 3 -5 -2 -35 -10 -68 -21 -84 -21 -86 -32 -115 -6
-15 -8 -30 -5 -33 4 -3 1 -6 -6 -6 -7 0 -10 -4 -6 -9 10 -17 -113 -288 -151
-332 -8 -8 -14 -21 -14 -27 0 -7 -4 -12 -8 -12 -5 0 -15 -11 -22 -25 -7 -13
-17 -22 -22 -19 -4 3 -8 1 -8 -5 0 -13 -45 -59 -95 -96 -22 -16 -42 -32 -45
-36 -3 -3 -34 -16 -70 -29 -82 -31 -191 -32 -240 -4 -39 22 -80 61 -80 74 0 6
-4 10 -8 10 -5 0 -15 19 -22 43 -8 23 -16 47 -19 52 -12 21 -22 108 -23 190
-1 117 13 229 48 380 1 6 4 21 7 35 3 14 10 37 16 53 6 15 9 27 6 27 -6 0 63
197 81 232 8 16 12 28 10 28 -7 0 91 169 109 186 8 9 15 19 15 23 0 12 89 102
135 136 57 44 124 75 168 79 21 2 40 6 43 9 8 8 99 -2 128 -13z"/>
<path d="M2288 4745 c-2 -1 -28 -5 -59 -8 -71 -8 -129 -21 -199 -45 -71 -25
-202 -90 -212 -105 -4 -7 -8 -7 -8 -2 0 6 -3 6 -8 -1 -4 -6 -23 -21 -43 -35
-52 -35 -126 -98 -168 -143 -20 -22 -43 -47 -51 -55 -126 -132 -284 -431 -345
-651 -1 -3 -7 -33 -15 -67 -7 -35 -16 -63 -20 -63 -4 0 -6 -14 -5 -30 1 -17
-1 -33 -6 -35 -4 -3 -5 -13 -2 -22 4 -9 2 -14 -3 -11 -5 3 -11 -24 -13 -61 -4
-73 -8 -116 -11 -116 -1 0 -3 -46 -4 -103 0 -56 2 -102 6 -102 4 0 5 -9 3 -20
-13 -69 69 -321 123 -378 6 -7 12 -17 12 -20 0 -13 84 -98 134 -136 104 -79
232 -116 396 -116 30 0 64 1 75 4 11 2 42 7 69 10 43 6 77 17 221 68 47 17
220 128 267 171 24 22 54 48 67 58 13 11 22 19 19 19 -2 0 18 24 44 53 58 61
151 196 198 285 19 34 38 62 43 62 4 0 5 5 2 10 -3 6 -2 10 2 10 5 0 9 8 10
18 1 9 19 62 41 117 53 131 56 139 53 149 -1 4 4 14 10 22 6 8 9 14 5 14 -3 0
-1 11 4 25 11 29 10 25 45 204 18 92 23 278 12 396 -7 79 -39 202 -64 249 -10
17 -17 33 -18 36 -2 16 -50 90 -59 90 -5 0 -6 3 -2 7 9 9 -140 153 -159 153
-8 0 -15 4 -15 9 0 8 -37 24 -52 22 -5 -1 -8 4 -8 11 0 6 -3 8 -7 5 -3 -4 -11
-3 -17 2 -14 11 -99 32 -151 37 -83 8 -134 12 -137 9z m52 -386 c0 -5 8 -9 18
-9 25 0 90 -67 112 -115 36 -78 41 -108 44 -245 3 -113 -16 -283 -38 -358 -3
-9 -7 -28 -10 -42 -2 -14 -9 -45 -16 -70 -7 -25 -14 -52 -15 -60 0 -8 -7 -25
-13 -37 -7 -13 -10 -23 -6 -23 3 0 2 -6 -3 -12 -5 -7 -16 -33 -23 -58 -7 -25
-17 -50 -22 -56 -4 -6 -5 -14 -1 -17 3 -4 1 -7 -6 -7 -7 0 -9 -4 -6 -10 3 -5
2 -10 -3 -10 -5 0 -13 -10 -17 -22 -4 -13 -9 -25 -10 -28 -1 -3 -6 -15 -10
-27 -4 -13 -11 -23 -15 -23 -5 0 -12 -10 -16 -22 -4 -13 -9 -25 -13 -28 -3 -3
-20 -25 -36 -50 -37 -55 -117 -135 -170 -169 -22 -14 -43 -30 -47 -36 -4 -5
-8 -7 -8 -3 0 4 -12 3 -27 -3 -79 -30 -179 -34 -237 -9 -79 34 -140 134 -153
250 -13 120 -4 297 22 420 19 95 26 131 27 137 0 5 5 19 10 33 5 14 12 36 14
49 8 40 74 211 107 276 16 33 35 70 41 82 6 13 14 23 19 23 4 0 7 7 7 15 0 8
5 15 12 15 6 0 9 2 6 5 -7 7 32 55 102 123 92 90 183 129 303 130 42 0 77 -4
77 -9z"/>
<path d="M767 4584 c-3 -3 -101 -9 -302 -17 -27 -2 -56 -6 -62 -10 -8 -5 -13
-3 -13 3 0 6 -3 9 -8 6 -4 -2 -46 -7 -93 -10 -134 -9 -230 -62 -270 -151 -50
-109 13 -227 129 -238 17 -2 35 -6 38 -10 3 -3 17 -2 30 3 16 6 24 6 24 -1 0
-6 6 -7 13 -2 6 4 26 8 42 9 17 1 50 2 75 4 69 3 71 2 65 -22 -3 -13 -7 -34
-9 -48 -3 -14 -12 -59 -21 -100 -9 -41 -18 -83 -20 -93 -2 -10 -6 -26 -9 -35
-6 -19 -13 -58 -22 -112 -3 -19 -8 -44 -11 -55 -8 -22 -9 -28 -17 -70 -7 -35
-8 -39 -35 -165 -11 -52 -22 -104 -24 -115 -1 -11 -6 -26 -10 -32 -5 -7 -6
-13 -3 -13 2 0 0 -15 -5 -32 -5 -18 -11 -46 -14 -63 -2 -16 -7 -41 -10 -55 -3
-14 -8 -36 -11 -50 -3 -14 -7 -32 -9 -40 -2 -8 -4 -16 -5 -17 -3 -4 -5 -11
-15 -68 -8 -49 -10 -58 -15 -72 -1 -5 -2 -12 -1 -17 1 -5 -1 -16 -5 -25 -8
-19 -10 -26 -17 -66 -3 -16 -10 -52 -17 -80 -6 -27 -13 -59 -14 -70 -2 -11 -6
-31 -10 -43 -5 -13 -9 -34 -11 -45 -2 -12 -11 -56 -21 -97 -9 -41 -19 -107
-20 -147 -2 -60 1 -76 17 -97 11 -14 17 -26 12 -26 -4 0 8 -11 28 -24 128 -87
332 -27 396 116 12 27 49 176 60 238 7 44 11 65 13 65 2 0 11 38 15 65 1 14 4
25 5 25 2 0 5 13 13 60 13 68 18 89 28 107 7 13 6 18 -2 18 -8 0 -8 4 -1 13 5
6 12 26 14 42 3 17 13 62 21 100 9 39 18 82 21 95 2 14 9 45 15 70 7 25 13 54
15 65 2 11 9 47 16 80 7 33 14 69 16 80 1 11 3 20 4 20 1 0 3 9 5 20 2 11 16
74 30 140 35 158 34 155 41 190 2 17 9 46 14 65 5 19 11 46 13 60 3 14 24 112
47 218 23 106 42 202 43 213 1 10 4 19 7 19 6 0 7 6 11 73 2 20 6 37 10 37 15
0 -32 80 -56 96 -21 14 -147 28 -158 18z"/>
<path d="M4747 2414 c-2 -2 -52 -6 -112 -9 -129 -6 -188 -10 -310 -21 -49 -4
-105 -7 -122 -7 -18 0 -33 -3 -33 -6 0 -3 -26 -6 -58 -6 -31 1 -61 -1 -65 -3
-10 -5 -109 -14 -159 -15 -21 0 -38 -3 -38 -7 0 -4 -22 -6 -50 -5 -27 1 -50
-1 -50 -4 0 -4 -15 -7 -32 -8 -36 -1 -139 -12 -178 -18 -14 -2 -50 -7 -80 -10
-30 -3 -68 -9 -85 -12 -16 -3 -46 -7 -65 -8 -19 -2 -53 -6 -75 -9 -22 -4 -56
-8 -75 -11 -56 -8 -82 -14 -87 -19 -3 -3 -16 -1 -30 5 -16 6 -22 6 -18 -1 4
-6 -6 -10 -22 -11 -15 0 -39 -3 -53 -5 -54 -10 -336 -57 -360 -60 -14 -2 -97
-17 -185 -34 -88 -17 -171 -33 -185 -36 -14 -2 -36 -7 -50 -10 -14 -3 -32 -7
-40 -9 -20 -3 -91 -17 -110 -21 -8 -2 -26 -5 -40 -8 -14 -3 -77 -16 -140 -31
-63 -14 -124 -27 -135 -29 -11 -2 -40 -9 -65 -16 -25 -7 -56 -14 -69 -17 -14
-2 -28 -6 -31 -8 -9 -5 -70 -18 -92 -19 -10 0 -18 -5 -18 -10 0 -5 -3 -7 -6
-4 -3 4 -20 2 -37 -4 -43 -13 -46 -14 -92 -23 -55 -12 -55 -12 -57 -15 -2 -1
-11 -3 -21 -6 -9 -2 -25 -6 -35 -8 -9 -3 -17 -5 -17 -6 0 -1 -9 -3 -20 -5 -30
-6 -567 -162 -625 -181 -8 -3 -16 -5 -17 -5 -3 1 -93 -31 -133 -46 -8 -3 -24
-8 -35 -10 -11 -2 -24 -8 -29 -13 -6 -6 -16 -10 -22 -10 -7 0 -25 -5 -41 -12
-15 -6 -32 -10 -37 -9 -5 1 -12 -2 -15 -6 -3 -4 -27 -19 -54 -32 -26 -13 -45
-26 -43 -29 3 -2 -8 -15 -25 -29 -16 -14 -27 -29 -23 -34 3 -5 1 -9 -4 -9 -6
0 -17 -20 -25 -44 -19 -55 -15 -157 7 -209 19 -43 94 -129 106 -122 4 3 10 -2
14 -10 3 -8 14 -15 24 -15 10 0 22 -3 26 -7 14 -15 114 -24 122 -11 3 5 10 6
15 2 9 -5 99 20 124 35 6 3 15 6 20 7 6 1 33 11 60 22 28 11 53 20 57 21 4 1
13 3 20 6 139 44 185 58 193 60 6 1 17 4 25 7 16 6 98 30 115 34 6 1 43 11 83
23 170 49 218 62 427 116 121 31 229 58 240 61 24 5 26 5 195 44 74 17 146 33
160 36 31 6 80 16 100 22 8 2 25 4 38 5 12 0 22 4 22 7 0 4 6 7 13 7 28 2 101
14 159 27 35 8 70 14 78 15 19 1 65 9 65 11 0 4 108 23 142 24 18 0 33 4 33 9
0 4 3 6 8 5 7 -2 78 8 125 18 42 8 73 13 202 33 135 21 311 46 380 55 49 6
275 34 330 41 22 3 63 8 90 11 28 3 64 7 80 9 17 2 68 7 115 11 78 6 115 11
115 14 0 0 41 3 90 6 90 5 150 11 150 13 0 2 193 13 233 13 17 0 32 4 32 9 0
5 11 4 24 -1 13 -5 26 -7 29 -4 2 3 42 7 88 9 85 5 189 30 189 46 0 5 6 9 14
9 17 0 86 78 86 97 0 7 5 13 12 13 6 0 8 3 5 7 -4 3 -2 13 5 20 7 8 12 48 12
91 1 62 -4 87 -24 127 -25 51 -68 102 -82 98 -4 -2 -8 1 -8 7 0 5 -13 16 -30
25 -16 9 -30 13 -30 9 0 -4 -7 -1 -16 6 -13 12 -167 23 -177 14z"/>
<path d="M4329 1276 c-2 -2 -44 -7 -94 -10 -49 -4 -98 -9 -110 -11 -11 -3 -47
-7 -80 -9 -33 -3 -76 -7 -95 -10 -19 -3 -78 -10 -130 -16 -52 -6 -106 -13
-120 -15 -14 -2 -47 -7 -75 -10 -27 -4 -57 -8 -65 -10 -8 -2 -39 -7 -69 -10
-30 -4 -63 -9 -75 -11 -12 -3 -38 -7 -60 -9 -21 -2 -46 -7 -55 -9 -9 -3 -34
-8 -56 -11 -23 -3 -52 -8 -65 -11 -14 -3 -36 -7 -50 -9 -40 -5 -92 -15 -125
-24 -16 -4 -38 -7 -47 -5 -10 1 -18 -1 -18 -5 0 -4 -8 -7 -17 -8 -36 -2 -128
-19 -128 -23 0 -1 -9 -3 -20 -4 -20 -2 -85 -15 -115 -23 -8 -2 -24 -5 -35 -8
-11 -2 -31 -6 -45 -10 -14 -3 -36 -8 -50 -11 -14 -3 -41 -9 -60 -14 -19 -5
-49 -12 -67 -15 -18 -3 -42 -9 -55 -14 -13 -5 -26 -9 -30 -10 -5 0 -9 -1 -10
-2 -2 0 -12 -2 -23 -4 -11 -2 -74 -17 -140 -35 -66 -17 -124 -33 -130 -34 -5
-2 -37 -10 -70 -20 -33 -10 -91 -26 -130 -37 -38 -12 -77 -23 -85 -26 -8 -3
-19 -7 -25 -8 -14 -4 -137 -45 -155 -52 -8 -3 -23 -8 -33 -9 -10 -2 -35 -13
-56 -24 -21 -10 -42 -16 -46 -12 -5 4 -5 1 -1 -5 4 -8 2 -13 -5 -13 -18 0 -89
-76 -89 -94 0 -9 -3 -16 -8 -16 -14 0 -29 -71 -28 -133 2 -63 31 -143 66 -178
24 -25 88 -70 102 -73 7 -2 22 -7 32 -11 39 -17 185 -7 211 15 6 5 15 7 18 3
4 -3 7 -2 7 4 0 5 6 10 13 11 21 2 42 7 53 14 6 4 22 9 36 12 15 2 36 10 48
16 12 6 24 9 27 6 4 -3 11 -1 18 4 6 5 20 11 31 13 10 2 26 7 34 10 30 11 89
28 116 33 15 3 31 7 36 10 4 3 16 7 25 9 10 3 38 9 63 16 25 6 52 12 60 14 8
2 15 4 15 5 0 1 7 3 15 5 24 6 59 15 78 19 69 18 449 106 475 110 17 3 64 12
102 21 39 9 77 16 85 16 8 1 22 3 30 6 8 3 29 7 45 8 17 2 30 4 30 5 0 2 22 6
72 14 54 8 95 16 116 22 21 6 102 16 130 16 9 -1 17 2 17 6 0 4 12 8 28 8 15
1 50 5 77 9 28 3 61 8 75 10 14 2 25 4 25 5 0 1 20 3 45 5 25 2 45 4 45 5 0 1
11 3 25 5 26 2 105 12 180 22 25 3 54 6 65 7 11 0 23 6 27 11 5 6 8 5 8 -3 0
-7 5 -10 10 -7 11 7 118 19 173 20 15 0 27 2 27 5 0 3 17 6 38 6 98 2 187 22
220 48 114 94 154 193 125 307 -15 58 -70 149 -90 149 -7 0 -13 4 -13 8 0 21
-98 54 -171 58 -42 2 -78 2 -80 0z"/>
</g>
</svg>
